<svg width="129" height="50" viewBox="0 0 129 50" fill="none" xmlns="http://www.w3.org/2000/svg">
<path d="M129 46.5305V50H113.6V46.5305H129ZM112.193 38.4046C112.194 39.398 112.001 40.3818 111.626 41.2997C111.251 42.2177 110.702 43.0517 110.008 43.7541C109.315 44.4566 108.491 45.0136 107.585 45.3933C106.679 45.773 105.707 45.9679 104.727 45.967C103.746 45.9678 102.775 45.7728 101.869 45.3931C100.962 45.0133 100.139 44.4563 99.4457 43.7539C98.7523 43.0515 98.2025 42.2175 97.8276 41.2996C97.4528 40.3817 97.2604 39.3979 97.2613 38.4046C97.2604 37.4113 97.4528 36.4275 97.8276 35.5096C98.2025 34.5917 98.7523 33.7577 99.4457 33.0553C100.139 32.3529 100.962 31.7959 101.869 31.4161C102.775 31.0364 103.746 30.8414 104.727 30.8422C105.707 30.8413 106.679 31.0362 107.585 31.4159C108.491 31.7956 109.315 32.3526 110.008 33.0551C110.702 33.7575 111.251 34.5915 111.626 35.5095C112.001 36.4274 112.194 37.4112 112.193 38.4046ZM89.7643 41.2814C94.3318 37.663 97.2599 32.0583 97.2599 25.742C97.2658 22.7438 96.5933 19.7841 95.2939 17.0902C93.9946 14.3963 92.1029 12.0399 89.7643 10.2019C86.4564 7.5923 82.2989 6.0207 77.7897 6.0207C67.0447 6.0207 58.3196 14.8583 58.3196 25.742C58.3196 36.6257 67.0447 45.4618 77.7897 45.4618C82.2989 45.4618 86.4564 43.9202 89.7643 41.2806V41.2814ZM38.91 24.4062V0C33.523 0 28.8092 2.87604 26.1745 7.20615C24.0274 6.40476 21.7576 5.99333 19.4694 5.99077C8.72434 5.99077 0 14.8277 0 25.7413C0 36.625 8.72434 45.4618 19.4694 45.4618C23.9786 45.4618 28.1361 43.8902 31.4447 41.2806C36.0115 37.663 38.9395 32.0576 38.9395 25.7413C38.9684 25.296 38.9395 24.8507 38.9107 24.4062H38.91ZM48.4847 15.1831C47.5115 15.1818 46.5476 15.375 45.6483 15.7516C44.7489 16.1283 43.9318 16.681 43.2437 17.3781C42.5556 18.0752 42.0101 18.903 41.6385 19.814C41.2668 20.725 41.0762 21.7014 41.0778 22.6871V45.4326C49.3337 45.4326 56.0099 38.6411 56.0099 30.3079V22.8054C56.0099 18.6234 52.6422 15.1839 48.4847 15.1839V15.1831ZM48.5438 15.1247C52.6667 15.1247 56.0099 11.7385 56.0099 7.56237C56.0092 3.38555 52.666 0 48.5431 0C44.4195 0 41.077 3.38555 41.077 7.56237C41.077 11.7385 44.4195 15.1247 48.5431 15.1247H48.5438Z" fill="#CF0F0F"/>
</svg>
