<svg width="422" height="280" viewBox="0 0 422 280" fill="none" xmlns="http://www.w3.org/2000/svg">
<path fill-rule="evenodd" clip-rule="evenodd" d="M382.924 1.41699C381.097 1.58123 356.319 2.57518 327.863 3.62609C299.406 4.677 265.23 5.9681 251.916 6.49498C238.601 7.02091 210.833 8.08701 190.209 8.86262C169.585 9.63917 135.836 10.9132 115.212 11.6954C94.5874 12.4767 65.5378 13.5485 50.657 14.0764C6.37718 15.6466 4.27916 15.9988 1.6457 22.3033C0.510301 25.0193 0.304293 27.7183 0.753328 33.9668C1.07515 38.4372 2.59124 70.0776 4.12442 104.277C5.65664 138.477 7.17368 170.601 7.49645 175.663C8.03852 184.195 7.93789 184.989 6.11042 186.553C3.65924 188.652 3.62222 191.408 5.58924 225.711C6.81293 247.054 7.2952 251.225 8.83027 253.717C9.88593 255.433 10.9093 259.472 11.3004 263.469C12.058 271.215 14.2728 275.655 18.1423 277.188C19.9422 277.901 29.3017 278.034 48.2837 277.616C72.449 277.086 76.0745 277.194 77.9418 278.506C79.5462 279.633 81.4145 279.866 85.5365 279.454C88.544 279.153 113.859 278.063 141.793 277.032C238.089 273.473 345.847 268.172 353.495 266.616C355.844 266.138 367.822 265.729 380.112 265.706C401.371 265.666 402.661 265.561 406.638 263.528C412.794 260.384 415.987 255.834 417.17 248.526C417.715 245.16 418.923 240.697 419.853 238.608C421.403 235.128 421.477 232.869 420.734 211.552C419.471 175.285 419.228 172.919 416.518 170.406L414.216 168.271L410.602 88.4187C406.611 0.238865 407.166 4.95326 400.443 2.14418C397.491 0.910997 391.392 0.657526 382.924 1.41699ZM398.618 9.67335C400.447 12.2859 400.384 14.9545 398.441 17.1009C395.133 20.7559 387.658 18.131 387.685 13.3245C387.704 10.0388 388.596 8.69364 391.46 7.63418C394.476 6.51871 396.889 7.20603 398.618 9.67335ZM392.156 13.1954C392.475 14.4153 393.184 14.9488 394.044 14.6194C394.801 14.3279 395.8 14.0906 396.262 14.0906C396.725 14.0906 396.858 13.4498 396.558 12.6666C396.257 11.8834 395.029 11.2426 393.829 11.2426C392.093 11.2426 391.75 11.6423 392.156 13.1954ZM17.4303 24.5333C19.871 26.974 19.8454 30.2663 17.361 33.4238C14.9041 36.5481 12.3257 36.6031 9.31823 33.5947C6.47117 30.7486 6.37149 28.4208 8.95558 25.1361C11.3194 22.1296 14.7807 21.8837 17.4303 24.5333ZM11.7343 26.2383C11.7343 26.7813 11.4751 27.9015 11.158 28.7274C10.7878 29.692 11.0992 30.2293 12.0286 30.2293C12.8241 30.2293 13.6899 30.7638 13.9538 31.416C14.2519 32.1555 14.4608 32.0055 14.5073 31.0191C14.5481 30.1476 14.8642 28.6524 15.2079 27.6965C15.5525 26.7395 15.4851 26.2744 15.0579 26.6607C14.6316 27.0481 13.7089 26.8886 13.0083 26.3076C12.17 25.6117 11.7343 25.588 11.7343 26.2383ZM375.305 32.109C380.171 35.7535 384.41 38.9926 384.725 39.3068C385.495 40.0758 387.489 80.8601 386.794 81.6054C386.493 81.9281 358.265 83.3284 324.065 84.7163C289.866 86.1043 215.533 89.1355 158.881 91.4519C102.23 93.7682 48.7821 95.9489 40.1089 96.2992L24.3395 96.9343L23.6826 79.9583C23.3219 70.6206 22.795 61.6295 22.5111 59.9767C22.0422 57.2407 22.7741 56.1148 30.6915 47.3999C35.4752 42.1358 40.3216 37.635 41.4627 37.3977C42.6038 37.1594 57.6346 36.5063 74.865 35.9443C92.0954 35.3832 117.727 34.5108 131.825 34.0057C145.923 33.5007 176.468 32.4431 199.703 31.6552C222.937 30.8672 252.842 29.8049 266.156 29.2942C279.47 28.7835 304.675 27.9129 322.167 27.3604C339.658 26.8069 355.251 26.226 356.817 26.0703C365.961 25.1589 366.072 25.195 375.305 32.109ZM370.108 40.3967C366.975 40.5694 328.1 42.4055 283.719 44.476C163.187 50.0979 143.998 50.9988 112.446 52.5168C96.5668 53.281 72.2164 54.3823 58.3343 54.9632C44.4521 55.5452 32.0263 56.3787 30.721 56.8154L28.3476 57.61L30.9754 57.685C33.5918 57.76 247.224 47.942 318.369 44.4779C329.073 43.9567 343.171 43.3083 349.697 43.0387C371.236 42.1463 380.076 41.4276 380.076 40.5694C380.076 40.1033 379.115 39.8033 377.94 39.9021C376.765 40.0008 373.241 40.2229 370.108 40.3967ZM323.591 67.2828C272.92 69.5184 32.2703 79.588 29.3758 79.5928C28.8973 79.5937 28.8081 79.8966 29.1774 80.2668C30.1248 81.2133 43.4535 80.7377 220.588 73.4354C264.186 71.6374 317.8 69.4767 339.729 68.6318C361.659 67.7878 380.456 66.734 381.5 66.2907C384.345 65.0812 366.582 65.385 323.591 67.2828ZM388.627 109.261C389.305 122.968 389.901 136.315 389.952 138.923L390.044 143.664L384.823 144.32C381.951 144.681 367.426 145.444 352.545 146.018C337.665 146.591 321.858 147.311 317.42 147.616L309.351 148.174L314.705 144.285C320.637 139.977 325.44 133.472 327.031 127.592C327.604 125.473 327.88 120.748 327.643 117.093C326.967 106.637 321.835 98.438 312.936 93.5945C305.397 89.4915 301.524 89.0586 281.262 90.0573C271.126 90.5566 229.564 92.4752 188.9 94.3217C148.237 96.1682 113.063 98.1058 110.736 98.6269C104.959 99.9218 100.121 102.552 96.5687 106.33C92.685 110.46 91.0028 113.946 89.5949 120.78C86.427 136.148 94.4299 152.246 106.91 155.607C108.971 156.161 110.507 156.747 110.324 156.908C110.14 157.068 98.8832 157.708 85.3077 158.331C71.7322 158.953 53.3797 159.849 44.5243 160.32C34.1281 160.874 28.2204 160.849 27.8502 160.251C27.2255 159.24 24.6006 99.6294 25.1579 99.0959C25.5224 98.7466 51.0025 97.5722 108.566 95.2501C128.146 94.4613 159.546 93.1815 178.342 92.4078C211.051 91.0617 240.062 89.8807 318.369 86.7071C337.949 85.9135 356.533 85.1369 359.665 84.9822C362.798 84.8274 370.319 84.6195 376.377 84.5208L387.394 84.3414L388.627 109.261ZM302.784 97.7412C306.609 98.8947 311.569 103.786 313.745 108.549C316.379 114.314 315.857 115.616 312.817 110.871C307.843 103.109 302.407 100.172 293.087 100.214C283.786 100.255 276.542 104.977 271.56 114.245C269.606 117.881 269.517 116.653 271.407 112.13C276.698 99.4652 289.316 93.68 302.784 97.7412ZM298.907 102.477C307.309 104.593 314.506 113.561 314.551 121.968C314.568 125.121 314.105 126.2 312.199 127.449C310.425 128.611 309.825 129.832 309.825 132.283C309.825 136.386 306.386 138.928 300.835 138.928C297.756 138.928 296.824 139.352 296.06 141.104C294.869 143.834 292.202 144.529 286.908 143.489C283.245 142.769 282.733 142.351 282.452 139.853C281.966 135.521 279.626 133.462 275.967 134.148C271.72 134.945 270.531 132.483 271.129 124.129C271.883 113.584 277.79 105.779 287.252 102.825C292.374 101.225 293.769 101.183 298.907 102.477ZM128.977 108.06C131.066 108.977 134.051 111.087 135.612 112.749L138.45 115.772L132.808 113.189C125.232 109.721 118.456 109.699 111.735 113.121C104.885 116.609 101.685 121.464 100.043 130.859C99.3104 135.049 99.2942 135.009 99.1851 128.831C99.0436 120.879 102.408 113.762 108.25 109.657C114.831 105.031 120.995 104.556 128.977 108.06ZM132.937 115.233C136.517 116.984 138.638 118.827 140.317 121.641C142.661 125.572 142.664 125.599 140.809 127.574C138.558 129.97 138.465 131.65 140.43 134.455C142.403 137.271 141.409 139.97 137.957 141.172C135.56 142.009 135.148 142.643 135.148 145.505C135.148 148.475 134.703 149.084 131.25 150.846L127.352 152.835L125.255 150.866C122.379 148.164 119.183 148.315 118.084 151.205C117.277 153.33 116.976 153.427 114.311 152.421C112.095 151.585 111.414 150.743 111.414 148.835C111.414 145.603 108.397 142.824 105.787 143.653C103.21 144.471 101.918 141.198 101.931 133.882C101.947 124.25 107.348 116.036 115.686 112.964C119.817 111.442 127.164 112.408 132.937 115.233ZM142.742 131.049C142.742 132.582 142.461 132.856 141.686 132.081C141.105 131.5 140.917 130.56 141.267 129.992C142.25 128.403 142.742 128.756 142.742 131.049ZM48.7583 141.264V148.896H57.2008C63.079 148.896 65.7808 148.535 66.0979 147.709C66.3476 147.057 66.2868 143.746 65.9622 140.352L65.3717 134.181L57.065 133.907L48.7583 133.633V141.264ZM64.7014 140.933L64.9805 146.735L61.3788 147.331C56.4736 148.141 51.8038 148.097 51.312 147.235C51.0889 146.843 50.6133 143.834 50.2554 140.549L49.6042 134.574L57.0128 134.853L64.4223 135.131L64.7014 140.933ZM280.396 139.104V141.431L277.537 139.395C274.269 137.068 274.483 135.646 278 136.318C279.786 136.659 280.396 137.369 280.396 139.104ZM301.281 140.794C301.281 141.036 300.427 141.692 299.383 142.251C297.867 143.061 297.484 142.972 297.484 141.809C297.484 140.985 298.309 140.352 299.383 140.352C300.427 140.352 301.281 140.55 301.281 140.794ZM138.112 144.79C137.285 146.213 137.099 146.254 137.075 145.02C137.045 143.421 138.043 141.981 138.715 142.654C138.938 142.876 138.666 143.837 138.112 144.79ZM108.014 145.675C108.84 145.992 109.516 147.127 109.516 148.195C109.516 150.08 109.457 150.087 107.617 148.421C104.809 145.88 105.005 144.521 108.014 145.675ZM390.883 156.728C391.218 162.603 391.752 171.36 392.068 176.189L392.643 184.971L388.496 184.972C386.214 184.973 370.678 185.61 353.969 186.388C337.261 187.167 290.696 189.308 250.492 191.146C210.288 192.985 144.94 195.978 105.275 197.799C65.61 199.62 32.4146 201.109 31.507 201.109C29.3634 201.109 29.0406 198.857 28.2992 178.772L27.703 162.604L65.0499 160.956C101.513 159.346 185.136 155.528 266.156 151.772C288.347 150.743 321.455 149.236 339.729 148.422C358.004 147.61 374.451 146.814 376.279 146.656C378.106 146.497 382.003 146.296 384.938 146.208L390.275 146.048L390.883 156.728ZM124.127 152.292C124.504 153.273 123.874 153.643 121.828 153.643C118.859 153.643 118.306 152.827 120.074 151.059C121.346 149.787 123.406 150.413 124.127 152.292ZM416.549 175.715C417.206 178.94 418.234 236.736 417.624 236.126C417.333 235.834 416.68 225.594 416.174 213.368C415.667 201.144 415.001 187.189 414.695 182.36C414.326 176.55 414.472 173.579 415.126 173.579C415.669 173.579 416.31 174.54 416.549 175.715ZM10.8438 220.884C11.6583 237.943 12.1928 252.076 12.0305 252.295C10.8182 253.915 10.1669 248.2 9.18912 227.375C7.84296 198.686 7.69486 188.211 8.64894 189.16C9.04102 189.55 10.0283 203.826 10.8438 220.884ZM334.843 199.466C336.509 200.684 337.61 204.155 347.112 238.134C352.597 257.743 353.195 263.766 349.659 263.766C348.165 263.766 348.049 263.353 348.805 260.718C349.285 259.043 349.363 257.377 348.976 257.015C348.589 256.654 321.787 257.574 289.415 259.06C257.042 260.544 210.691 262.653 186.412 263.743C162.133 264.834 129.025 266.35 112.838 267.111C96.6522 267.872 82.8375 268.499 82.1388 268.504C81.1838 268.51 81.0281 269.454 81.5104 272.31C82.1996 276.388 81.5284 277.105 79.5092 274.446C77.6608 272.011 77.8174 269.894 82.0164 240.619C85.4501 216.676 86.0662 213.726 88.0019 211.994C90.0097 210.196 92.6565 209.941 126.181 208.311C145.994 207.348 197.448 204.749 240.524 202.534C330.825 197.892 332.611 197.834 334.843 199.466ZM210.479 215.412C207.57 216.488 205.399 220.018 205.399 223.673C205.399 227.543 208.994 231.488 212.519 231.488C216.171 231.488 219.639 227.548 219.639 223.4C219.639 221.514 219.22 219.19 218.709 218.235C217.502 215.979 213.062 214.456 210.479 215.412ZM214.933 219.169C220.313 222.048 218.455 229.532 212.349 229.575C207.289 229.61 205.62 223.452 209.799 220.165C212.704 217.879 212.573 217.905 214.933 219.169ZM210.615 222.952C210.29 223.478 210.596 224.48 211.296 225.18C212.359 226.243 212.844 226.085 214.249 224.223C215.902 222.032 215.891 221.995 213.568 221.995C212.269 221.995 210.941 222.425 210.615 222.952ZM263.867 235.359C260.996 238.77 260.793 241.07 263.029 244.855C266.699 251.066 275.948 251.575 278.97 245.731C281.132 241.552 280.712 239.209 277.168 235.665C274.571 233.068 273.197 232.438 270.133 232.438C267.046 232.438 265.859 232.991 263.867 235.359ZM305.458 240.412C300.032 245.838 302.12 253.453 309.408 254.82C315.752 256.01 321.217 251.961 321.217 246.069C321.217 241.732 320.401 240.15 317.352 238.573C312.805 236.222 309.071 236.8 305.458 240.412ZM152.387 239.653C145.517 244.466 149.793 254.272 158.762 254.272C162.917 254.272 167.433 250.131 167.395 246.356C167.379 244.705 166.844 242.677 166.208 241.848C163.281 238.037 156.282 236.925 152.387 239.653ZM316.518 239.582C318.058 240.379 319.319 241.198 319.319 241.403C319.319 241.608 319.599 242.558 319.941 243.514C320.34 244.626 319.835 244.354 318.54 242.76C315.957 239.576 313.792 239.038 309.501 240.513C305.909 241.748 305.659 240.51 309.21 239.076C312.175 237.88 313.39 237.965 316.518 239.582ZM409.926 242.143C411.939 245.015 411.782 247.813 409.468 250.295C405.346 254.72 400.012 252.486 400.012 246.334C400.012 240.546 406.799 237.677 409.926 242.143ZM316.091 241.708C317.645 242.745 319.319 246.283 319.319 248.528C319.319 251.335 313.952 254.492 310.3 253.832C307.134 253.26 304.129 250.228 304.129 247.606C304.129 243.656 312.689 239.436 316.091 241.708ZM405.122 243.592C404.801 244.767 403.84 245.759 402.986 245.795C401.764 245.848 401.821 246.013 403.264 246.578C404.269 246.972 405.414 248.117 405.808 249.122C406.475 250.825 406.528 250.809 406.591 248.892C406.627 247.762 407.001 246.694 407.421 246.519C407.84 246.345 407.627 245.135 406.946 243.83L405.708 241.456L405.122 243.592ZM113.681 245.673C107.841 248.138 105.757 256.296 109.909 260.448C116.048 266.587 126.086 262.709 126.086 254.196C126.086 247.967 119.299 243.304 113.681 245.673ZM122.04 248.339C125.077 251.876 125.02 252.585 121.83 250.935C118.337 249.129 113.963 249.592 111.24 252.057C109.691 253.458 109.516 253.463 109.516 252.115C109.516 247.838 119.122 244.941 122.04 248.339ZM122.232 252.657C125.166 254.804 123.892 259.195 119.744 261.222C116.342 262.885 116.097 262.886 113.335 261.254C109.422 258.943 108.835 256.543 111.49 253.717C113.926 251.124 119.396 250.585 122.232 252.657ZM30.6517 257.723C34.3531 262.428 32.1288 268.512 26.7072 268.512C22.5538 268.512 20.2783 266.128 20.2783 261.774C20.2783 255.519 26.8876 252.937 30.6517 257.723ZM408.556 259.02C404.507 262.19 401.206 262.629 376.916 263.234C354.656 263.788 353.363 263.727 353.668 262.132C353.965 260.588 356.035 260.385 377.714 259.768C390.761 259.398 402.931 258.693 404.759 258.204C410.156 256.759 411.167 256.977 408.556 259.02ZM23.9085 260.675C23.5896 262.85 23.9731 263.645 25.7474 264.482C27.4467 265.284 27.891 265.268 27.5806 264.416C27.3556 263.797 27.8227 262.543 28.6182 261.63C29.933 260.12 29.896 259.968 28.21 259.968C27.1894 259.968 25.8946 259.509 25.3335 258.948C24.6044 258.219 24.1962 258.714 23.9085 260.675ZM295.585 263.766V266.614H289.492C286.141 266.614 282.724 266.873 281.898 267.19C280.738 267.635 280.396 267.13 280.396 264.975C280.396 263.439 280.681 261.898 281.029 261.551C281.377 261.202 284.794 260.918 288.624 260.918H295.585V263.766ZM261.409 264.613C261.409 268.059 260.234 268.512 251.301 268.512H244.195L244.496 265.902C244.813 263.143 244.83 263.139 259.273 262.031C261.034 261.895 261.409 262.349 261.409 264.613ZM186.237 268.75C186.524 271.24 186.349 271.36 182.44 271.369C180.186 271.373 176.099 271.646 173.358 271.975L168.374 272.574V269.646C168.374 266.839 168.561 266.702 172.884 266.341C175.364 266.134 179.316 266.004 181.665 266.052C185.594 266.132 185.961 266.349 186.237 268.75ZM149.388 270.411V273.259H141.793C134.47 273.259 134.198 273.18 134.198 271.044C134.198 269.825 134.483 268.544 134.832 268.196C135.179 267.848 138.597 267.563 142.426 267.563H149.388V270.411ZM19.7761 271.904C22.0678 273.406 31.7852 273.188 67.857 270.824C75.0008 270.356 76.1172 270.493 76.6612 271.909C77.0029 272.801 77.1662 273.626 77.0238 273.743C76.8805 273.86 64.0939 274.187 48.6093 274.47C24.8161 274.906 20.1473 274.77 18.4679 273.594C17.3752 272.828 16.481 271.799 16.481 271.306C16.481 270.06 17.1455 270.18 19.7761 271.904Z" fill="white"/>
</svg>
