<svg width="829" height="404" viewBox="0 0 829 404" fill="none" xmlns="http://www.w3.org/2000/svg">
<path fill-rule="evenodd" clip-rule="evenodd" d="M0 404C1.19496 403.83 2.41763 403.655 3.63202 403.481C14.1341 401.973 15.9637 401.809 24.4965 401.61C29.6407 401.489 34.0341 401.271 34.2593 401.125C35.5072 400.314 40.3093 399.714 45.361 399.737C50.7897 399.761 52.9244 399.548 56.0501 398.67C57.616 398.23 57.9326 398.261 60.187 399.073C62.4976 399.906 62.9839 399.947 69.2861 399.847C75.4159 399.749 76.3289 399.82 80.7975 400.745C85.477 401.714 86.0198 401.749 95.9282 401.724C106.023 401.698 106.237 401.682 107.979 400.834C109.511 400.088 110.192 399.982 112.961 400.061C115.756 400.14 116.584 400.009 119.379 399.042L122.587 397.932L168.749 397.797L171.856 396.633C176.389 394.936 179.348 394.331 184.378 394.073L188.855 393.844L190.23 387.196C191.259 382.219 191.661 379.282 191.827 375.516C191.993 371.738 192.227 370.037 192.763 368.688C193.259 367.44 193.559 365.519 193.745 362.399C193.92 359.444 194.226 357.415 194.636 356.47C194.98 355.679 195.73 352.283 196.304 348.923C197.76 340.4 202.193 322.527 203.53 319.787C204.716 317.358 205.86 316.057 210.291 312.099C214.289 308.528 216.987 304.797 220.011 298.659C223.427 291.727 224.28 290.881 233.078 285.704C236.011 283.978 239.06 281.917 239.854 281.124C242.385 278.596 242.983 275.769 241.552 273.101C240.946 271.972 240.65 270.235 240.114 264.661C239.743 260.801 239.255 256.754 239.03 255.666C238.758 254.349 238.57 245.371 238.467 228.763C238.333 207.12 238.39 203.309 238.895 199.834C239.632 194.772 240.513 191.301 242.354 186.21C243.157 183.991 244.728 179.588 245.847 176.426L247.88 170.676L247.877 165.824C247.874 161.269 247.803 160.778 246.72 157.79C244.525 151.737 244.372 150.391 244.258 136.176C244.201 129.061 244.053 122.39 243.928 121.352C243.704 119.485 243.689 119.466 242.462 119.466C241.361 119.466 240.585 120.059 235.563 124.747C223.842 135.685 220.441 138.841 216.594 142.349C208.5 149.729 206.254 152.875 203.59 160.553C199.674 171.84 194.418 179.131 182.599 189.67C175.624 195.89 170.799 199.815 160.982 207.251C158.691 208.987 157.575 209.754 157.029 210.815C156.455 211.932 156.512 213.373 156.496 216.612C156.473 221.282 156.356 222.375 155.682 224.222C153.934 229.008 151.454 232.802 149.693 233.382C149.003 233.61 148.297 233.709 148.124 233.602C147.948 233.493 147.982 232.494 148.201 231.33C148.817 228.06 148.72 224.182 148.006 223.469C147.448 222.912 147.129 223.149 143.299 226.961C141.039 229.21 137.217 233.431 134.806 236.341C132.116 239.588 129.757 242.068 128.702 242.758C127.756 243.376 126.586 244.463 126.102 245.173C125.231 246.449 125.223 246.542 125.329 253.49C125.443 260.918 125.148 263.363 123.551 268.198C122.643 270.95 120.246 273.699 119.481 272.865C119.042 272.386 118.187 268.551 117.489 263.932C117.295 262.647 116.979 261.057 116.788 260.398C116.46 259.264 114.728 256.026 114.45 256.026C114.379 256.026 114.002 256.552 113.612 257.194C113.222 257.836 111.969 259.898 110.828 261.776C106.794 268.414 105.633 272.268 105.622 279.05C105.616 283.374 106.08 285.729 107.456 288.367C107.904 289.226 108.085 290.058 107.944 290.617C107.726 291.486 104.342 295.126 104.04 294.816C103.735 294.503 100.209 284.529 99.3468 281.541C97.4625 275.011 97.3327 271.568 98.845 268.244C99.2497 267.355 99.7227 266.061 99.8958 265.369C100.244 263.977 99.9342 259.979 99.4777 259.979C98.7899 259.979 87.5778 274.858 86.1644 277.647C84.7636 280.41 82.4851 286.462 81.3127 290.533C80.2918 294.079 80.0137 294.796 78.6852 297.311L77.8531 298.887L76.8301 297.097C74.6958 293.364 73.9911 284.344 75.403 278.829C75.8009 277.275 76.7434 274.732 77.4974 273.179L78.8679 270.355L77.9693 270.58C76.5142 270.945 73.4032 273.183 72.0388 274.846C71.3427 275.695 69.6404 278.14 68.2562 280.279L65.7395 284.168L65.4837 282.806C65.3431 282.057 65.2096 279.566 65.187 277.27C65.1463 273.1 65.1477 273.093 66.5316 270.401C69.0699 265.462 72.5561 260.671 76.4779 256.732C82.5775 250.606 88.2429 247.293 97.2769 244.572C99.9119 243.778 102.758 242.724 103.602 242.23C106.871 240.316 109.047 236.886 109.897 232.307C110.541 228.835 111.886 224.998 113.802 221.167C115.216 218.338 115.725 217.654 116.768 217.172C121.364 215.051 122.545 214.301 125.299 211.751C126.965 210.21 128.519 208.948 128.754 208.949C128.987 208.949 130.057 209.282 131.131 209.69C135.193 211.233 137.558 211.216 139.575 209.632C140.095 209.223 141.641 207.325 143.01 205.414C144.379 203.504 147.301 200 149.503 197.628C157.332 189.196 163.103 181.366 167.384 173.371C174.524 160.035 176.289 156.643 178.943 154.227C179.962 153.299 181.113 152.515 182.75 151.366C187.585 147.972 191.803 143.609 195.714 137.958C199.27 132.819 207.138 121.738 209.228 118.926C211.485 115.89 226.104 96.1216 228.629 92.6926C229.939 90.9137 232.461 87.4558 234.234 85.0081C239.92 77.1591 241.88 75.7054 251.051 72.5355C259.868 69.4877 260.517 69.1114 262.033 66.1635C264.077 62.191 266.346 60.9304 271.498 60.9041C277.485 60.8736 278.35 60.2271 276.487 57.1775C275.862 56.1547 274.879 54.759 274.303 54.0758L273.255 52.8334L269.026 53.8896C263.177 55.3508 258.169 55.3976 255.265 54.0183C251.343 52.1557 244.941 45.7791 240.761 39.5717C237.383 34.5566 234.178 26.9603 232.972 21.1101C232.432 18.4939 232.658 17.2606 233.816 16.5026C234.315 16.176 238.094 15.435 243.073 14.6871C252.196 13.3168 256.096 12.5525 261.38 11.0992C264.525 10.2346 265.191 10.1745 269.73 10.3477C272.442 10.4512 275.006 10.7196 275.426 10.9446C276.494 11.5156 277.009 12.9402 278.292 18.8792C279.681 25.3057 279.682 25.3108 280.205 25.3108C281.027 25.3108 285.678 21.9349 287.841 19.7672C289.715 17.8895 290.542 16.5594 293.758 10.2482C297.89 2.13898 299.125 0.514343 301.159 0.514343C303.444 0.514343 303.588 0.762268 308.361 12.9125C311.987 22.1404 313.175 24.1615 315.772 25.521C317.439 26.3936 317.794 26.1848 318.422 23.9631C319.584 19.8448 321.213 14.7033 321.437 14.442C321.564 14.295 324.088 15.2412 327.047 16.545C330.007 17.8488 334.046 19.5598 336.025 20.3472C343.064 23.1484 346.878 25.5367 349.699 28.9098C350.948 30.4026 350.954 30.4271 350.954 33.9917V37.5735L349.378 37.3375C348.511 37.2074 346.904 37.2874 345.806 37.5153C342.712 38.1567 341.108 39.6298 338.183 44.5154C334.817 50.14 332.364 53.3491 328.067 57.751C323.918 62.0024 323.516 62.5742 322.697 65.3902C322.229 66.9977 322.128 68.3916 322.259 71.4599C322.514 77.4732 323.861 80.5128 328.641 85.8645C337.527 95.8126 338.708 98.6947 336.812 105.81C336.312 107.687 335.791 110.351 335.657 111.729C335.368 114.669 333.318 120.207 330.32 126.144C329.214 128.334 327.826 131.604 327.235 133.409C325.57 138.499 322.533 150.968 322.551 152.642C322.573 154.803 323.27 156.465 325.317 159.245C328.69 163.825 332.344 170.056 333.899 173.879C336.216 179.575 340.331 184.594 345.437 187.954C351.514 191.952 353.759 194.708 363.182 209.743C366.568 215.145 367.491 216.042 370.132 216.5C370.765 216.61 371.621 216.758 372.446 216.901C373.088 217.012 373.711 217.12 374.197 217.204C376.552 217.61 380.525 219.742 385.427 223.23C389.275 225.969 396.64 232.969 396.64 233.889C396.64 234.555 396.35 234.546 390.873 233.707C389.581 233.509 387.233 233.315 385.657 233.277L382.79 233.206L382.678 234.362C382.487 236.345 383.789 238.394 389.251 244.706C398.364 255.237 401.466 259.823 403.1 265.188C404.179 268.731 404.412 273.413 403.707 277.408C403.042 281.176 401.219 286.826 400.744 286.588C400.564 286.497 399.689 284.842 398.798 282.908C397.908 280.975 397.066 279.391 396.926 279.389C396.787 279.387 396.578 279.991 396.462 280.732C395.624 286.098 393.804 290.546 390.617 295.017C388.611 297.831 384.171 302.744 383.633 302.744C383.422 302.744 383.333 301.288 383.408 299.06C383.52 295.754 383.76 294.639 385.749 288.189C386.968 284.236 388.156 279.891 388.39 278.533C389.004 274.965 388.678 268.842 387.766 266.807C387.005 265.11 385.285 262.854 384.752 262.854C384.58 262.854 384.392 267.758 384.334 273.752L384.229 284.65L383.223 286.168C381.937 288.108 381.256 288.372 380.366 287.274C379.875 286.668 379.734 286.103 379.881 285.328C380.536 281.897 380.523 281.622 379.593 278.929C378.883 276.874 378.653 275.502 378.653 273.315C378.653 271.013 378.285 268.988 376.853 263.422C374.725 255.151 374.584 254.746 373.66 254.252C372.174 253.457 371.454 254.339 369.798 258.981C369.284 260.419 368.738 261.732 368.583 261.898C368.168 262.341 367.208 259.165 366.582 255.284C365.357 247.69 362.118 239.098 355.802 226.691C349.799 214.899 343.671 206.894 334.455 198.807C332.153 196.787 328.165 193.179 325.593 190.79C313.06 179.15 310.145 176.542 308.748 175.725C307.034 174.721 302.75 173.595 302.75 174.148C302.75 174.343 303.619 175.663 304.681 177.081C307.096 180.304 307.596 181.291 308.133 183.899C308.571 186.019 308.503 186.949 307.565 191.668C307.134 193.837 307.122 194.391 307.501 194.646C308.772 195.503 310.296 196.162 312.376 196.757C315.072 197.527 323.232 201.715 327.048 204.287C338.778 212.195 346.832 223.114 348.448 233.3C348.659 234.632 349.33 237.177 349.94 238.955C350.937 241.866 351.077 242.819 351.335 248.479C351.493 251.938 351.733 255.662 351.868 256.755C352.179 259.27 351.631 262.814 350.227 267.368C348.054 274.421 348.02 274.838 347.72 298.252C347.52 313.802 347.579 318.361 346.634 322.701C346.089 325.199 345.212 327.625 343.762 332.032C341.02 340.365 339.576 344.727 338.784 349.204C337.89 354.254 337.827 359.452 337.669 370.665C337.435 387.33 337.389 388.195 336.635 390.387C335.719 393.047 335.635 394.982 336.36 396.716L336.875 397.948L356.775 398.052C371.199 398.128 377.021 398.041 377.934 397.738C378.626 397.508 379.921 397.036 380.812 396.69C382.049 396.208 384.042 396.004 389.265 395.823C394.017 395.659 397.416 395.337 400.417 394.767C406.193 393.67 412.892 393.849 418.763 395.259C421.823 395.993 424.15 396.271 429.022 396.481C432.488 396.631 435.564 396.903 435.857 397.086C436.15 397.269 439.709 397.533 443.765 397.671C448.868 397.845 453.079 398.221 457.435 398.892C465.899 400.194 472.495 400.233 479.558 399.021L484.595 398.156H531.54C574.213 398.156 579.09 398.216 585.14 398.809C588.8 399.168 593.307 399.684 595.156 399.955C597.277 400.267 598.828 400.331 599.36 400.129C600.605 399.656 604.124 395.27 605.411 392.586C606.891 389.501 606.917 386.925 605.504 383.602C604.019 380.112 603.889 377.66 605.032 374.693C606.63 370.549 606.751 369.558 606.799 360.33C606.842 352.225 606.747 350.723 605.734 343.353L604.623 335.267L602.706 333.65C601.651 332.76 598.846 330.163 596.471 327.878C594.097 325.593 591.183 322.908 589.996 321.911C587.698 319.98 578.315 313.2 576.951 312.484C576.648 312.325 576.456 312.189 576.3 312.221C575.964 312.292 575.793 313.141 575.044 316.22C573.934 320.78 569.811 330.155 566.271 336.165C558.303 349.694 553.2 358.096 552.438 358.939C551.378 360.112 549.627 360.962 548.268 360.962C547.145 360.962 544.732 360.17 536.756 357.182C529.464 354.451 527.652 353.931 523.626 353.41C516.986 352.551 509.462 350.593 504.44 348.418C502.225 347.459 501.556 347.472 496.465 348.571C491.547 349.633 490.406 350.17 487.361 352.851C484.279 355.565 482.788 355.89 481.487 354.134C481.121 353.639 480.721 352.492 480.598 351.583C480.234 348.891 481.167 346.535 484.571 341.55C486.255 339.082 488.446 335.851 489.439 334.368C492.999 329.055 493.936 327.855 496.318 325.558C498.406 323.544 498.915 323.228 500.066 323.228C501.233 323.228 501.733 323.551 504.079 325.824C505.553 327.251 507.194 329.226 507.728 330.211C508.266 331.206 509.205 332.297 509.84 332.664C511.486 333.617 520.169 335.006 528.302 335.617C532.16 335.908 535.882 336.311 536.573 336.514C539.92 337.498 541.573 336.646 542.539 333.437C543.429 330.483 544.785 323.437 546.265 314.064C549.227 295.316 549.183 294.285 545.255 290.213C541.814 286.646 541.53 283.672 544.108 278.175C548.782 268.208 552.879 260.457 554.549 258.42C555.548 257.202 556.914 255.154 557.585 253.87C559.075 251.017 561.038 244.978 561.038 243.249C561.038 242.04 560.933 241.933 558.789 240.975C557.553 240.422 555.439 239.603 554.092 239.156C552.971 238.785 552.296 238.532 551.696 238.653C550.681 238.859 549.883 240.137 547.518 243.731C546.034 245.985 543.724 248.985 542.385 250.4C537.37 255.693 536.457 258.488 536.421 268.655C536.393 276.525 536.337 276.718 533.751 277.798C529.178 279.706 523.615 275.717 523.628 270.539C523.63 269.969 524.201 266.753 524.899 263.393C525.596 260.033 526.473 255.666 526.848 253.69C527.72 249.092 528.38 247.138 530.19 243.807C534.74 235.432 540.93 227.774 544.67 225.892C547.27 224.584 564.73 219.088 568.772 218.305C571.336 217.809 575.136 217.442 579.564 217.262C587.008 216.961 588.443 216.595 589.114 214.833C589.52 213.767 588.779 210.135 587.628 207.545C585.839 203.523 585.423 198.809 586.428 193.951C587.125 190.579 588.242 188.328 590.055 186.642C591.988 184.844 592.928 184.324 595.969 183.37C601.142 181.747 611.245 182.463 616.002 184.79C621.554 187.506 625.758 195.905 623.848 200.47C623.066 202.34 623.119 203.159 624.168 205.409C625.556 208.388 625.632 209.338 624.602 210.854C624.115 211.57 623.608 212.931 623.475 213.877C622.925 217.787 621.581 220.135 619.357 221.074C618.641 221.376 616.441 221.804 614.467 222.024L610.879 222.425L609.701 224.702C608.234 227.538 608.183 229.288 609.421 234.393C610.837 240.23 610.914 241.623 609.958 244.175C608.974 246.804 609.12 247.514 611.58 252.073C615.267 258.905 617.618 259.358 622.764 254.227C627.79 249.216 630.099 243.919 630.114 237.363C630.124 233.23 630.838 231.254 632.663 230.311C634.338 229.446 637.777 229.761 639.667 230.954C640.592 231.537 641.168 231.891 641.506 232.403C642.072 233.26 641.967 234.56 641.712 238.124L641.349 243.209L639.456 246.903C635.668 254.293 629.024 263.855 624.464 268.479C622.244 270.729 617.984 273.775 615.783 274.686C614.743 275.116 614.499 275.063 612.586 273.984C609.352 272.161 606.824 270.19 603.184 266.656L599.823 263.393L597.163 266.268C592.837 270.943 592.144 273.355 594.016 277.229C594.84 278.934 594.962 279.616 594.907 282.203C594.78 288.129 595.309 288.966 608.343 303.479C624.719 321.713 627.807 326.31 628.49 333.47C628.683 335.483 628.497 337.313 627.559 342.634C626.485 348.729 626.381 349.985 626.314 357.727C626.257 364.311 626.075 367.202 625.486 370.844C624.362 377.79 623.988 381.038 624.055 383.276C624.102 384.865 623.911 385.651 623.144 387.023L622.173 388.758L623.352 389.989C625.09 391.802 628.526 394.167 631.186 395.379C634.56 396.917 638.103 397.617 642.505 397.617C645.646 397.617 646.761 397.775 648.909 398.525C650.362 399.033 653.019 399.579 654.928 399.764C656.807 399.946 660.126 400.444 662.302 400.871C665.645 401.527 667.713 401.661 675.613 401.729C685.445 401.814 686.162 401.883 689.677 403.076L691.869 403.82L694.353 402.789C696.668 401.827 697.141 401.76 701.333 401.805C709.196 401.889 747.075 400.006 749.801 399.395C753.238 398.626 756.83 398.316 762.312 398.316C768.469 398.316 773.081 398.833 779.755 400.271C788.786 402.216 794.145 402.323 807.814 400.83C818.82 399.629 822.98 400.087 827.159 402.961C827.735 403.357 828.25 403.702 828.727 404L0 404ZM263.539 398.152C254.216 398.194 250.5 398.36 245.192 398.969C235.956 400.029 232.196 400.184 229.005 399.638C227.521 399.385 223.716 398.746 220.551 398.221C208.866 396.279 206.833 395.611 205.854 393.388C204.977 391.397 203.484 384.011 203.236 380.439C203.073 378.088 203.21 376.199 203.785 372.821C205.527 362.606 210.954 344.118 213.591 339.41C216.046 335.03 219.36 331.803 224.534 328.758C230.73 325.112 232.378 324.109 235.596 322.026C240.045 319.146 243.037 316.705 247.022 312.703C249.453 310.262 251.068 308.973 252.747 308.137C256.672 306.181 259.476 303.958 261.523 301.182C265.049 296.396 267.355 291.809 268.797 286.711C269.227 285.193 269.471 282.263 269.663 276.33C269.836 270.956 270.14 267.059 270.532 265.19C270.878 263.543 271.272 259.167 271.455 254.948C271.673 249.951 272.07 245.904 272.689 242.37C274.241 233.509 276.011 224.4 276.221 224.19C276.331 224.08 282.623 227.093 290.202 230.887L303.982 237.784L307.765 238.086C311.038 238.348 311.888 238.56 314.074 239.657C318.424 241.841 322.586 244.891 323.415 246.503C324.358 248.337 324.39 251.572 323.502 255.487C322.49 259.949 322.2 264.626 322.188 276.713C322.175 288.18 322.399 290.794 323.625 293.493C324.573 295.578 324.507 297.063 323.344 299.841L322.355 302.205L322.295 313.76C322.248 322.86 322.117 325.775 321.678 327.485C320.218 333.178 320.179 336.534 321.472 345.342C322.878 354.916 323.97 364.46 323.972 367.191C323.973 368.852 323.674 371.181 323.242 372.872C322.691 375.026 320.736 392.69 320.736 395.511C320.736 395.681 315.192 395.824 308.415 395.827C293.513 395.836 285.29 396.257 279.547 397.308C275.728 398.007 273.882 398.104 263.539 398.152Z" fill="white"/>
</svg>
