<svg width="888" height="294" viewBox="0 0 888 294" fill="none" xmlns="http://www.w3.org/2000/svg">
<path fill-rule="evenodd" clip-rule="evenodd" d="M192.817 2.17542C194.202 1.48866 195.901 0.71854 196.594 0.463388C198.104 -0.0929155 201.564 -0.154367 205.155 0.311735C207.197 0.57659 208.197 0.928418 209.654 1.89404C212.09 3.50977 217.277 8.84962 219.241 11.7641C222.546 16.6691 224.653 22.7914 224.653 27.4905C224.653 34.2617 226.514 37.5697 232.637 41.6827C235.989 43.9345 240.081 47.9379 243.779 52.586C246.402 55.8824 247.283 56.4693 248.813 55.9363C250.162 55.4667 251.355 53.2102 251.203 51.4144C251.167 50.98 251.148 50.6867 251.031 50.4407C250.773 49.9014 250.039 49.5893 247.603 48.5157C246.672 48.1057 245.645 47.365 245.32 46.8698C244.42 45.4985 240.848 35.697 240.436 33.4697C240.236 32.3876 240.124 28.0011 240.187 23.7214C240.301 15.9853 240.307 15.931 241.285 14.2693C244.303 9.14 252.196 5.70945 258.564 6.75845C262.929 7.4779 266.863 10.5207 269.08 14.8917L270.159 17.0188L270.155 24.3859C270.15 32.706 269.97 33.6666 267.821 36.8273C267.03 37.9895 266.383 39.3709 266.383 39.8966C266.382 40.8871 268.375 45.8546 269.485 47.6317C269.833 48.188 270.957 49.6945 271.983 50.9792C274.145 53.6881 274.895 55.0886 276.807 59.9879C278.859 65.2476 281.965 78.7211 282.392 84.2147C282.515 85.7927 282.85 88.2009 283.138 89.5658C284.145 94.3486 285.143 104.413 285.342 111.804C285.591 120.997 285.083 126.691 283.429 133.269C282.759 135.934 282.209 138.441 282.207 138.839C282.199 140.378 280.474 143.196 278.34 145.157C275.309 147.941 275.078 148.839 275.913 154.593C276.817 160.828 276.466 163.043 273.74 168.3C272.617 170.467 271.47 172.974 271.193 173.871C270.476 176.186 269.878 182.726 270.31 183.532C270.5 183.888 271.354 184.385 272.206 184.638C278.705 186.561 288.862 192.335 293.563 196.779C294.565 197.726 296.362 199.794 297.558 201.375C303.379 209.073 305.854 214.388 308.019 223.836C308.848 227.453 308.968 228.775 308.983 234.437C309.008 243.603 307.714 249.564 303.987 257.458C301.262 263.228 298.714 266.908 293.69 272.326C291.333 274.868 289.405 277.11 289.405 277.309C289.405 277.508 290.523 278.01 291.889 278.425C294.317 279.162 294.982 279.179 321.538 279.179C347.957 279.179 353.834 279.35 365.089 280.452C372.722 281.198 380.671 281.125 386.173 280.257C389.035 279.805 392.5 279.543 395.706 279.537C404.113 279.519 408.683 279.012 410.964 277.843C412.037 277.293 412.968 276.681 413.031 276.483C413.094 276.286 412.101 274.669 410.824 272.89C406.522 266.898 402.855 258.731 401.48 252.079C400.764 248.618 400.763 242.091 401.478 237.988C402.613 231.475 405.398 224.752 409.122 219.537C414.463 212.057 420.385 207.524 428.082 205.023C436.388 202.324 442.494 202.024 450.153 203.938C452.08 204.419 452.516 204.432 452.926 204.02C453.193 203.751 453.803 201.591 454.28 199.219C454.758 196.847 456.06 191.313 457.173 186.921C458.287 182.528 459.199 178.359 459.199 177.655C459.199 175.695 458.365 174.123 456.51 172.587C453.686 170.248 453.602 169.853 455.062 165.822C457.012 160.441 458.204 154.737 459.385 145.134C460.885 132.934 464.233 125.739 470.176 121.937C473.23 119.984 475.019 119.553 481.322 119.256C487.87 118.947 490.484 118.259 494.763 115.72C499.491 112.914 502.62 110.242 507.037 105.238C508.517 103.561 511.397 100.456 513.436 98.3372C517.357 94.2634 518.195 92.882 518.195 90.4937C518.195 88.3788 516.832 87.0915 514.219 86.7379C511.252 86.3361 510.444 85.7773 509.61 83.5488C507.54 78.0214 506.795 71.6314 507.396 64.5483C508.046 56.8901 508.696 54.9919 511.52 52.5091C513.667 50.6209 516.257 49.9018 520.917 49.8993C525.201 49.8971 527.306 50.539 529.583 52.5414C531.882 54.5632 532.829 56.4596 533.844 61.0707C534.341 63.3279 535.151 65.9574 535.644 66.9144C536.138 67.8717 536.541 68.8036 536.541 68.9858C536.541 69.168 535.821 70.2008 534.94 71.2807C532.093 74.7727 532.447 77.2509 536.026 78.8878C538.88 80.193 541.481 80.3727 543.701 79.4186C545.905 78.4713 549.369 78.3861 551.038 79.2386C551.672 79.5616 553.408 80.984 554.897 82.3992C556.385 83.8141 559.277 86.1579 561.323 87.6072C569.934 93.7064 575.568 100.836 578.409 109.232C582.393 121.003 579.976 127.232 569.682 131.72C566.489 133.113 564.949 133.779 564.182 134.951C563.463 136.05 563.424 137.594 563.338 140.598C563.269 143.003 563.019 145.775 562.782 146.759C561.971 150.117 559.353 154.488 555.767 158.469C552.027 162.621 551.428 163.704 552.234 164.853C553.553 166.735 562.101 167.97 567.744 167.095C570.876 166.609 573.207 165.617 576.922 163.188C580.125 161.094 581.933 160.616 585.825 160.837C589.385 161.038 590.35 161.459 591.414 163.273C593.264 166.426 592.183 169.235 586.911 174.971C583.097 179.121 582.765 179.85 583.729 181.964C584.096 182.769 584.002 183.194 583.015 185.175C581.385 188.446 581.116 190.213 581.228 196.882L581.328 202.812L583.846 203.634C587.481 204.822 589.392 204.979 590.524 204.181C591.031 203.824 593.361 201.475 595.702 198.962C598.043 196.449 600.902 193.651 602.055 192.746C606.683 189.114 614.604 185.694 620.467 184.798C625.544 184.021 634.802 184.311 639.009 185.379C641.65 186.049 642.104 186.079 642.786 185.628C643.84 184.932 645.178 180.988 647.501 171.732C649.69 163.009 649.686 162.827 647.238 160.244C641.267 153.942 638.398 149.519 636.504 143.696C635.453 140.464 635.404 140.063 635.587 136.15C635.856 130.41 637.293 125.721 639.542 123.251C640.903 121.755 644.235 119.807 647.003 118.889C648.474 118.401 649.961 117.652 650.308 117.225C651.042 116.32 655.316 113.45 657.74 112.234C659.762 111.219 665.13 109.979 669.207 109.584C672.693 109.246 673.615 108.621 674.486 106C675.317 103.5 678.194 100.284 683.815 95.5708C690.784 89.7271 700.165 79.3202 701.977 75.4224C703.193 72.8077 703.409 68.9419 702.553 65.1024C701.821 61.8167 701.99 59.2555 703.08 57.1219C703.5 56.2993 703.755 55.4828 703.647 55.3075C703.538 55.1317 702.408 54.6419 701.134 54.2186C699.861 53.7956 698.419 53.1344 697.929 52.7495C696.681 51.7684 695.986 49.5381 695.755 45.7684C695.646 43.9895 695.333 41.7255 695.06 40.7372C694.786 39.7489 694.34 38.1555 694.069 37.1963L693.575 35.452L695.112 32.619C696.857 29.4023 697.33 26.8519 696.924 22.8377C696.626 19.878 696.106 19.0201 693.653 17.4414C691.269 15.9073 689.787 14.4173 689.787 13.5559C689.787 13.1876 690.125 12.5486 690.538 12.1361C691.232 11.4425 691.54 11.4051 694.629 11.6365C699.25 11.9826 700.401 11.7088 703.816 9.45122C709.001 6.02391 711.771 5.92256 717.749 8.94162C724.517 12.3596 727.657 15.3643 729.621 20.3024C730.544 22.6225 730.602 23.1098 730.609 28.5186C730.614 31.6811 730.77 34.5111 730.958 34.8076C731.145 35.1041 732.099 36.0697 733.078 36.9537C734.056 37.8374 735.077 39.0859 735.345 39.7274C736.154 41.6604 735.948 44.2842 734.754 47.263C734.16 48.7439 733.675 50.4775 733.675 51.1158C733.675 53.5433 737.635 57.9848 741.376 59.7528C742.423 60.2477 744.742 60.9711 746.528 61.3607C750.13 62.1459 754.88 64.3488 759.088 67.1861C761.979 69.1349 762.799 70.1131 763.844 72.8616C765.221 76.4811 767.421 79.5775 772.14 84.5393C778.788 91.5283 781.156 94.7346 784.193 100.858C786.356 105.219 787.417 108.522 787.127 109.99C786.999 110.641 786.757 112.759 786.59 114.696C786.334 117.665 786.081 118.633 784.981 120.857C782.904 125.056 779.351 127.991 773.86 130.043C771.659 130.866 769.781 132.534 769.006 134.353C768.655 135.178 768.439 137.096 768.378 139.923C768.259 145.542 767.501 147.698 764.643 150.546C763.537 151.649 761.824 153.011 760.834 153.575C758.478 154.917 757.777 155.536 757.777 156.274C757.777 157.229 758.722 157.873 763.788 160.369C766.452 161.682 768.692 163.021 768.913 163.433C769.422 164.384 768.858 165.315 766.981 166.617C765.8 167.437 765.114 167.615 762.734 167.723C761.061 167.799 758.514 167.604 756.527 167.246C754.154 166.819 752.957 166.747 752.479 167.003C751.607 167.469 749.709 171.354 749.014 174.094C748.718 175.263 748.126 177.917 747.698 179.993C747.271 182.068 746.45 184.895 745.874 186.275C745.298 187.655 744.826 189.12 744.826 189.532C744.826 190.391 745.904 191.464 748.963 193.652C750.15 194.501 752.174 196.111 753.46 197.231C754.746 198.35 756.004 199.389 756.256 199.538C756.552 199.714 757.57 198.995 759.134 197.508C764.749 192.166 769.568 188.934 775.224 186.715C780.162 184.777 783.702 184.162 789.973 184.151C795.986 184.141 798.91 184.625 804.814 186.612C811.305 188.795 814.258 190.559 819.115 195.152C823.954 199.727 826.554 203.22 829.369 208.922C833.626 217.548 834.389 221.036 834.474 232.281C834.512 237.239 834.377 239.421 833.896 241.625C832.311 248.892 828.816 256.807 824.932 261.929C822.121 265.634 817.597 270.024 813.715 272.814C809.864 275.581 806.188 278.48 806.041 278.865C805.975 279.038 807.525 279.179 809.485 279.179C814.462 279.179 831.992 280.148 838.896 280.804C847.938 281.665 864.187 284.107 875.908 286.367C881.297 287.406 888 289.396 888 289.955C888 290.28 882.808 293.019 880.381 294H5.12575C3.93847 293.668 2.83098 293.27 1.72851 292.787L0 292.029L4.31679 290.603C7.15544 289.665 9.55738 289.115 11.3316 288.995C12.8155 288.894 14.8854 288.504 15.9318 288.128C17.4154 287.595 18.8158 287.444 22.2984 287.444C25.995 287.444 27.2458 287.295 29.5693 286.58C31.9637 285.843 38.9292 284.726 51.018 283.141C52.5659 282.938 54.6973 282.772 55.7546 282.772C56.9705 282.772 57.7338 282.607 57.8313 282.323C57.9159 282.076 56.9568 280.823 55.6999 279.538C52.5533 276.322 45.2026 268.169 43.8737 266.421C38.9141 259.897 34.7908 250.228 33.422 241.911C31.8597 232.42 34.0293 219.793 38.7443 210.935C45.0659 199.059 54.9754 190.432 66.9103 186.415L70.5076 185.204H80.76C89.5975 185.204 91.3746 185.296 93.6373 185.875C95.0813 186.245 96.3547 186.455 96.4673 186.342C96.5799 186.23 97.6893 183.502 98.9322 180.28C100.175 177.059 102.261 171.698 103.567 168.368C104.873 165.037 105.941 161.931 105.941 161.465C105.941 160.911 105.484 160.269 104.624 159.614C102.587 158.063 100.892 156.212 100.327 154.922C99.8812 153.907 99.8812 153.617 100.324 152.766C101.037 151.397 102.29 150.301 103.921 149.62C105.056 149.147 106.432 149.062 111.47 149.154C117.481 149.264 117.671 149.245 119.222 148.368C122.233 146.666 124.288 142.487 124.288 138.065C124.288 133.571 122.286 130.338 117.648 127.338C114.175 125.093 112.891 123.866 112.013 121.955C111.398 120.615 111.353 119.139 111.347 100.213C111.343 87.6938 111.48 79.41 111.703 78.6082C112.157 76.9742 113.379 75.163 114.672 74.2056C115.565 73.5451 115.791 73.5171 116.831 73.9386C117.47 74.1977 118.792 74.5682 119.77 74.7619C122.293 75.2625 124.484 76.4682 127.09 78.7912C129.223 80.6929 129.829 80.997 131.123 80.8169C132.118 80.6786 132.922 79.6285 134.816 75.9895C138.19 69.5058 141.592 67.0732 147.334 67.0362C149.986 67.019 150.177 67.0797 154.888 69.4299C160.328 72.1439 163.1 72.8863 167.815 72.8917C174.125 72.8989 178.146 71.6063 181.125 68.6131C182.847 66.8831 187.513 59.1581 190.691 52.7761C192.661 48.8205 194.435 43.7325 194.435 42.0392C194.435 40.7839 193.287 39.7349 191.289 39.1667C189.291 38.5986 188.447 37.6398 187.966 35.3901C187.501 33.2159 186.291 31.247 184.133 29.1537C182.638 27.7036 182.564 27.535 182.564 25.5542C182.564 24.3697 182.023 21.3277 181.305 18.4818C179.911 12.9511 179.864 12.4886 180.462 10.115C181.098 7.59471 182.936 6.03793 186.968 4.6062C188.8 3.95574 191.432 2.86181 192.817 2.17542ZM128.875 91.9473C126.087 91.9473 124.477 91.4226 120.626 89.2589C119.036 88.3655 117.616 87.6349 117.47 87.6349C117.324 87.6349 117.1 90.1009 116.972 93.1153C116.845 96.1296 116.498 100.698 116.201 103.267C115.305 111.018 115.621 119.38 116.855 120.613C117.523 121.28 120.377 120.733 123.094 119.415C127.078 117.484 128.484 113.628 130.028 100.392C130.42 97.0324 130.847 93.7578 130.976 93.1153L131.212 91.9473H128.875ZM177.846 127.675C178.805 126.458 185.382 99.6651 186.284 93.3014C186.389 92.564 186.363 91.8945 186.228 91.8136C186.093 91.7328 184.687 92.1212 183.104 92.6765C170.853 96.9738 158.274 98.3976 143.443 97.1664C137.58 96.6798 135.68 96.6299 135.29 96.9526C134.569 97.5513 134.041 100.117 133.659 104.885C132.926 114.039 130.836 120.107 126.969 124.309C125.89 125.481 125.007 126.668 125.007 126.947C125.007 127.225 125.659 128.318 126.456 129.376C130.789 135.128 131.057 139.853 127.653 150.473C126.724 153.367 125.952 156.382 125.936 157.173C125.908 158.561 125.949 158.614 127.165 158.721C127.858 158.782 130.201 159.147 132.371 159.532C137.471 160.438 143.906 160.799 145.288 160.257C146.278 159.868 146.313 159.778 146.091 158.152C145.426 153.273 145.417 150.637 146.057 148.711C147.375 144.747 150.855 142.225 165.117 134.898C175.044 129.799 177.087 128.64 177.846 127.675ZM719.735 112.941C719.735 111.759 715.847 104.522 714.588 103.357C712.803 101.708 711.979 101.94 706.437 105.657C701.362 109.06 695.98 111.806 692.845 112.591C684.333 114.721 680.863 116.302 672.035 122.072C669.427 123.777 667.379 124.655 666.045 124.64C664.824 124.627 662.173 123.06 660.215 121.195C658.964 120.002 657.879 119.255 657.503 119.328C657.431 119.342 657.367 119.35 657.307 119.37C656.792 119.542 656.557 120.557 653.493 133.111C652.284 138.062 651.296 142.545 651.296 143.075C651.296 144.242 652.111 144.827 655.648 146.202C660.063 147.918 661.065 149.497 660.096 153.214C659.4 155.882 659.432 157.464 660.199 158.401C660.789 159.122 673.191 163.347 691.546 169.082C694.393 169.971 697.546 171.024 698.554 171.42L700.387 172.142L701.207 171.126C702.277 169.8 702.84 167.73 702.425 166.641C702.248 166.177 700.93 164.756 699.495 163.482C693.726 158.361 688.975 152.04 684.595 143.656C680.209 135.262 679.567 132.28 681.366 128.673C682.469 126.461 684.289 124.859 686.538 124.12C687.435 123.825 691.163 122.941 694.824 122.155C708.301 119.261 715.453 117.458 716.963 116.573C718.647 115.588 719.735 114.162 719.735 112.941ZM647.33 136.101C648.7 129.749 649.94 121.526 649.613 120.966C649.39 120.587 648.536 120.664 646.289 121.268C639.966 122.966 636.568 128.172 636.552 136.182C636.54 142.343 640.153 151.184 644.585 155.841C645.897 157.219 649.136 158.906 649.905 158.611C651.365 158.051 652.279 154.005 651.156 153.073C650.881 152.845 649.707 152.491 648.548 152.285C645.053 151.666 645.033 151.63 645.503 146.814C645.725 144.552 646.546 139.731 647.33 136.101ZM517.476 132.446C517.248 128.92 516.967 127.1 516.506 126.157C516.046 125.216 515.594 124.804 514.957 124.742C513.679 124.618 501.23 128.857 495.891 131.235C490.712 133.541 488.545 134.668 483.301 137.782C478.681 140.526 476.622 141.273 473.588 141.305C471.08 141.332 466.96 139.968 465.471 138.62C464.778 137.992 463.875 137.714 463.875 138.129C463.875 138.229 463.399 140.453 462.816 143.07C461.893 147.217 460.897 153.971 460.087 161.572L459.848 163.815L461.019 164.447C462.886 165.455 464.125 166.721 465.485 169.011C466.878 171.357 467.052 172.721 466.213 174.727C465.471 176.501 465.525 178.31 466.344 179.049C466.712 179.382 468.614 180.042 470.571 180.516C472.527 180.99 474.613 181.566 475.207 181.796C475.8 182.026 479.362 182.992 483.121 183.943C486.88 184.893 492.789 186.436 496.251 187.37C502.631 189.092 503.854 189.475 504.181 189.092C504.292 188.963 504.3 188.745 504.371 188.461C504.507 187.92 504.394 186.939 504.108 186.19C503.572 184.783 502.419 183.99 495.75 180.438C490.547 177.667 488.337 175.338 488.337 172.626C488.337 170.65 489.042 169.648 493.317 165.556C500.378 158.797 507.473 153.532 514.841 149.583C518.74 147.494 520.713 145.685 520.713 144.199C520.713 143.699 520.295 142.741 519.783 142.071C518.387 140.242 517.831 137.925 517.476 132.446ZM469.811 133.827C474.619 133.293 477.905 132.195 477.905 131.124C477.905 130.923 477.865 130.782 477.815 130.809C477.765 130.837 476.323 130.984 474.61 131.137C471.363 131.425 469.438 132.098 468.315 133.337C467.655 134.066 467.659 134.067 469.811 133.827ZM200.037 166.147C202.918 163.199 204.704 159.397 205.377 154.779C205.602 153.236 205.3 152.369 204.734 152.934C204.605 153.063 199.685 155.715 193.802 158.828C187.918 161.941 183.104 164.679 183.104 164.913C183.104 165.146 184.972 166.309 187.256 167.496C190.72 169.297 191.707 169.654 193.214 169.654C195.566 169.654 197.662 168.576 200.037 166.147ZM747.225 163.159C747.367 161.96 747.282 161.342 746.936 161.056C746.666 160.833 745.865 160.543 745.156 160.41C743.977 160.19 743.656 160.339 741.383 162.16C740.017 163.254 738.056 164.576 737.025 165.097C735.512 165.862 734.719 166.645 732.918 169.156C729.817 173.479 728.872 175.367 729.159 176.671C729.714 179.197 735.87 183.629 738.955 183.725L740.28 183.766L741.67 180.172C744.045 174.03 747.014 164.937 747.225 163.159ZM109.487 163.316C109.699 162.544 109.787 161.776 109.684 161.609C109.581 161.442 109.367 161.306 109.209 161.306C108.854 161.306 104.331 171.919 101.734 178.849C99.229 185.532 98.5667 189.661 100.672 185.473C101.774 183.279 108.982 165.163 109.487 163.316ZM670.542 169.015C666.387 167.676 661.714 166.203 660.159 165.74C656.256 164.58 656.163 164.597 657.045 166.325C658.953 170.06 667.222 177.142 680.794 186.664C688.886 192.342 703.156 201.555 703.859 201.555C705.268 201.555 707.406 197.938 707.412 195.543C707.413 195.103 706.298 192.515 704.933 189.793C703.568 187.071 701.931 183.517 701.296 181.895C700.54 179.966 699.83 178.742 699.241 178.357C698.746 178.033 693.786 176.346 688.219 174.608C682.651 172.87 674.697 170.353 670.542 169.015ZM112.814 183.766C113.829 178.881 113.729 171.311 112.58 166.067C112.368 165.101 111.87 165.016 111.525 165.888C108.629 173.189 103.649 187.002 103.519 188.095C103.303 189.909 104.311 191.242 107.006 192.708C108.462 193.499 108.958 193.621 109.361 193.288C110.154 192.63 112.071 187.345 112.814 183.766ZM160.126 172.339C158.462 169.776 156.859 168.343 154.399 167.221L152.314 166.269L137.715 166.17C123.861 166.076 123.08 166.106 122.442 166.743C121.505 167.679 121.52 170.389 122.466 171.269C122.849 171.626 125.56 172.796 128.491 173.869C131.422 174.943 135.648 176.761 137.883 177.907C143.16 180.617 143.657 180.622 151.616 178.051C157.375 176.191 161.34 174.686 161.34 174.361C161.34 174.277 160.794 173.367 160.126 172.339ZM662.088 181.433C659.021 179.374 655.964 177.319 655.293 176.865C654.622 176.411 653.939 176.04 653.776 176.04C653.357 176.04 651.312 182.895 650.609 186.657C650.127 189.233 650.603 190.053 654.473 193.313C660.582 198.458 663.778 202.438 667.078 209.01C671.359 217.532 672.181 220.927 672.411 231.023C672.626 240.439 672.128 243.453 669.119 250.944C664.877 261.505 662.367 265.118 654.305 272.266C650.532 275.612 649.122 276.817 649.339 277.512C649.474 277.943 650.234 278.178 651.445 278.606C652.265 278.896 657.755 279.546 663.874 280.076C673.408 280.904 675.26 281.165 678.12 282.079C680.851 282.953 682.017 283.132 685.001 283.132C687.272 283.132 690.568 283.478 693.957 284.073C698.886 284.938 700.049 285.009 708.314 284.949C720.784 284.86 731.782 284.358 735.833 283.693C738.198 283.304 741.522 283.14 746.625 283.158C752.802 283.181 754.613 283.061 757.777 282.42C765.64 280.827 774.685 278.356 774.684 277.802C774.684 277.67 773.254 276.714 771.507 275.679C758.158 267.771 750.336 257.007 745.745 240.227C745.09 237.833 744.374 235.875 744.155 235.875C743.935 235.875 742.014 237.832 739.884 240.224C735.23 245.454 734.514 246.086 729.9 249.032L726.306 251.328L728.359 251.548C731.065 251.839 732.409 252.43 732.922 253.555C733.272 254.322 733.235 254.594 732.699 255.191C730.448 257.698 723.832 261.645 721.114 262.104C718.186 262.598 716.604 261.833 712.917 258.137C711.096 256.313 709.5 254.398 709.37 253.882C708.876 251.914 709.97 250.039 714.429 245.216C719.653 239.565 720.143 237.573 717.57 232.459C715.716 228.775 715.172 226.093 715.471 222.117C715.745 218.467 715.414 217.701 712.758 215.833C707.097 211.853 698.646 206.137 690.285 200.634C685.118 197.232 677.915 192.363 674.277 189.813C670.64 187.263 665.155 183.492 662.088 181.433ZM265.308 183.044C265.782 182.752 266.135 179.804 265.867 178.378C265.574 176.821 265.08 176.755 264.756 178.23C264.269 180.442 264.616 183.471 265.308 183.044ZM569.596 180.21C569.203 179.785 558.609 177.889 554.444 177.499C552.215 177.291 549.986 177.125 549.492 177.13C547.679 177.149 549.753 177.84 554.961 178.95C558.573 179.72 561.549 180.106 564.96 180.248C567.631 180.358 569.717 180.341 569.596 180.21ZM170.892 196.344C170.251 188.729 168.83 181.937 167.227 178.825C166.547 177.506 165.274 177.531 161.34 178.943C159.658 179.547 157.546 180.249 156.647 180.504C155.748 180.759 154.679 181.145 154.271 181.363C153.864 181.581 151.929 182.269 149.971 182.893C148.013 183.516 146.346 184.087 146.265 184.161C146.186 184.235 146.878 184.963 147.804 185.777C149.871 187.595 156.361 196.22 162.016 204.667C164.6 208.525 168.281 212.581 170.581 214.103C172.414 215.316 173.415 215.54 173.077 214.661C172.961 214.358 172.695 212.62 172.487 210.798C172.278 208.975 171.95 206.352 171.758 204.969C171.565 203.585 171.175 199.704 170.892 196.344ZM254.22 183.636C257.247 185.789 261.638 183.197 260.788 179.758C260.467 178.46 260.359 178.371 259.007 178.306C257.138 178.216 255.617 178.919 254.208 180.522C252.783 182.143 252.786 182.615 254.22 183.636ZM112.909 197.242C113.808 197.242 117.152 187.527 118.136 182.058C118.354 180.846 118.379 179.656 118.197 179.183L117.887 178.376L117.516 179.319C117.312 179.838 116.958 180.97 116.731 181.835C116.503 182.7 115.439 186.16 114.367 189.525C112.337 195.893 112.082 197.242 112.909 197.242ZM140.296 188.644C134.806 183.995 130.873 181.721 126.85 180.869C123.379 180.134 122.244 180.198 121.635 181.161C120.903 182.319 119.384 187.414 118.36 192.15C117.875 194.389 117.071 197.113 116.571 198.202C115.57 200.388 115.656 200.872 117.376 202.715C118.526 203.946 119.451 205.469 121.802 210C126.335 218.736 128.179 227.251 127.791 237.659C127.294 250.994 122.971 261.132 113.252 271.755C111.111 274.096 109.116 276.407 108.819 276.89C108.316 277.71 108.337 277.813 109.134 278.42C110.264 279.28 116.372 279.533 136.159 279.542C151.442 279.55 157.4 279.837 162.779 280.826C164.461 281.136 168.103 281.475 170.873 281.58C177.331 281.825 182.092 281.209 193.896 278.604C210.199 275.006 213.452 274.857 224.603 277.196C228.038 277.917 231.054 278.428 231.305 278.331C231.556 278.235 232.021 277.394 232.339 276.462L232.917 274.767L229.774 271.482C224.659 266.136 220.519 259.38 217.645 251.687C216.907 249.71 216.117 247.962 215.891 247.803C214.844 247.064 202.034 248.374 198.651 249.566C192.3 251.805 186.007 250.38 181.695 245.727C180.587 244.532 179.319 242.926 178.876 242.158C177.874 240.418 176.892 239.931 175.306 240.385C174.651 240.573 173.37 240.726 172.458 240.726C170.793 240.726 170.387 240.508 167.015 237.794C166.27 237.195 165.365 236.955 163.238 236.795C160.055 236.554 159.749 236.421 158.976 234.926C158.462 233.932 158.467 233.764 159.044 232.883C160.244 231.05 161.882 229.917 164.578 229.053C168.588 227.769 171.413 225.708 171.413 224.065C171.413 223.758 170.32 222.63 168.984 221.559C163.264 216.969 157.283 210.086 154.141 204.475C151.745 200.196 145.483 193.037 140.296 188.644ZM572.272 183.769C571.628 183.499 567.461 182.97 554.168 181.47C542.752 180.181 542.403 180.187 541.225 181.683C540.267 182.899 540.272 185.327 541.235 187.213C542.091 188.891 544.412 190.497 547.291 191.403C551.582 192.755 552.215 194.88 549.941 200.31C548.813 203.003 548.592 203.948 548.592 206.073C548.592 208.194 548.741 208.833 549.492 209.931C550.485 211.385 551.8 212.023 552.934 211.604C553.342 211.453 554.949 210.499 556.507 209.484C560.221 207.062 562.867 205.825 568.042 204.092C570.386 203.308 572.593 202.417 572.948 202.114C573.533 201.614 573.594 200.815 573.594 193.676C573.594 185.592 573.414 184.247 572.272 183.769ZM234.546 189.658C231.084 187.257 226.422 185.49 220.434 184.306C218.303 183.885 216.257 183.453 215.887 183.346C214.278 182.881 215.911 184.168 222.315 188.413C230.762 194.013 231.871 194.772 232.753 194.566C232.915 194.528 233.07 194.457 233.261 194.378C234.624 193.814 235.762 192.571 235.885 191.51C235.96 190.862 235.636 190.413 234.546 189.658ZM577.708 199.112C578.867 195.464 579.283 188.348 578.511 185.387C577.938 183.187 577.066 183.061 576.492 185.097C575.942 187.048 575.614 195.818 576.011 197.958C576.332 199.688 577.313 200.355 577.708 199.112ZM505.66 196.394C505.17 195.951 500.111 194.525 490.604 192.15C467.464 186.369 464.636 185.752 464.031 186.358C463.109 187.278 463.378 187.969 465.134 189.186C465.728 189.597 467.104 190.556 468.192 191.318C495.581 210.483 505.707 217.545 510.371 220.73C513.887 223.132 515.412 224.243 515.904 223.895C516.317 223.602 516.001 222.279 515.525 219.825C514.663 215.377 513.312 211.951 507.399 199.218C506.848 198.032 506.065 196.761 505.66 196.394ZM482.354 207.939C473.054 201.517 464.743 195.756 463.886 195.135C462.141 193.872 461.957 193.821 461.439 194.457C460.612 195.472 458.479 203.696 458.479 205.87C458.479 206.704 458.878 207.21 460.548 208.494C463.17 210.51 468.893 216.456 471.287 219.652C475.231 224.916 477.784 231.132 478.781 237.897C479.488 242.697 479.486 244.594 478.769 250.119C477.522 259.718 474.04 267.733 467.901 275.131C467.121 276.073 466.402 277.247 466.304 277.741C466.206 278.235 466.019 278.892 465.888 279.199C465.704 279.633 466.118 279.914 467.73 280.45C469.487 281.034 471.098 281.161 478.085 281.263C489.591 281.431 513.217 280.745 518.015 280.103C525.48 279.105 533.471 278.785 544.534 279.042C550.427 279.179 555.247 279.161 555.247 279.001C555.247 278.842 553.824 277.159 552.084 275.262C544.721 267.231 541.994 262.416 539.973 253.869C539.104 250.196 537.525 246.476 536.835 246.476C536.348 246.476 535.793 248.199 535.292 251.273C534.81 254.22 534.039 255.676 532.549 256.446C529.792 257.871 523.691 260.571 521.754 261.223C520.514 261.64 518.4 262.074 517.057 262.187C514.098 262.434 513.354 262.02 513.676 260.305C514.065 258.23 511.838 257.285 506.504 257.263C504.257 257.253 503.228 257.065 501.812 256.407C499.991 255.559 498.293 253.919 497.875 252.601C497.573 251.651 498.247 250.481 499.229 250.248C506.352 248.556 510.518 247.456 512.271 246.806C514.569 245.954 518.195 243.809 518.195 243.303C518.195 243.135 517.95 242.203 517.651 241.233C517.352 240.262 517.004 237.976 516.878 236.151C516.601 232.144 516.145 231.281 513.288 229.353C512.129 228.571 509.561 226.797 507.583 225.41C502.821 222.073 502.013 221.513 482.354 207.939ZM529.122 197.844C530.765 198.11 530.757 197.693 529.096 196.434C527.7 195.376 526.469 195.139 526.469 195.929C526.469 196.713 527.721 197.617 529.122 197.844ZM753.46 204.46C753.46 203.96 747.419 198.39 745.413 197.04C744.403 196.361 743.37 195.805 743.117 195.805C742.627 195.805 741.233 197.851 741.23 198.573C741.23 198.811 741.4 199.38 741.609 199.837C741.965 200.618 742.447 200.993 746.085 203.313C746.877 203.817 747.982 204.598 748.541 205.049C749.1 205.499 749.958 205.867 750.448 205.867C751.456 205.867 753.46 204.931 753.46 204.46ZM823.029 221.342C819.581 208.627 808.672 198.432 796.112 196.187C793.573 195.733 788.172 195.751 785.656 196.222C782.815 196.754 778.982 197.963 777.022 198.943C772.603 201.157 767.13 206.239 767.13 208.13C767.13 208.848 768.649 210.305 774.954 215.638C783.322 222.715 787.152 225.747 791.838 229.004C794.125 230.593 794.876 231.333 795.201 232.318C796.073 234.956 794.514 237.967 792.037 238.432C791.316 238.567 789.019 238.496 786.932 238.273C784.845 238.051 777.678 237.762 771.004 237.632C761.986 237.455 759.235 237.239 758.596 238.298C758.239 238.89 758.541 239.88 758.777 241.499C760.274 251.757 769.644 262.224 780.876 266.185C787.889 268.657 793.804 268.598 801.164 265.98C813.667 261.534 822.776 249.579 824.358 235.542C824.86 231.084 824.432 226.516 823.029 221.342ZM91.552 198.5C91.552 198.157 90.8559 197.607 89.8432 197.151C88.3547 196.481 87.3693 196.37 82.1989 196.289C75.6496 196.187 73.715 196.481 69.0133 198.296C65.7271 199.565 62.1931 201.57 58.7634 204.11C46.6383 213.089 40.9897 232.097 45.8958 247.408C47.9581 253.845 50.9079 258.451 56.4611 263.905C63.3273 270.65 69.5248 273.594 78.4217 274.339C83.5037 274.765 91.3966 273.378 96.1832 271.218C104.015 267.684 111.663 259.651 115.367 251.068C117.762 245.518 118.339 242.522 118.33 235.695C118.32 228.673 117.507 224.215 115.315 219.168C113.637 215.302 110.836 210.899 110.056 210.899C109.398 210.899 101.453 218.197 94.7895 224.921C92.3164 227.417 89.1597 231.059 87.7748 233.016C86.3898 234.971 84.6685 237.183 83.9501 237.93C82.7853 239.141 82.4511 239.289 80.8729 239.289C79.3164 239.289 78.9527 239.134 77.8627 238.011C76.7446 236.858 76.623 236.533 76.623 234.687C76.623 232.878 76.7954 232.389 78.1037 230.484C80.6301 226.806 83.1155 221.39 86.2876 212.653C87.9654 208.031 89.8364 203.087 90.445 201.665C91.0537 200.242 91.552 198.818 91.552 198.5ZM638.244 197.861C637.806 197.762 636.151 197.342 634.568 196.928C631.068 196.013 623.148 195.897 620.103 196.716C615.19 198.038 610.62 200.631 606.692 204.325C603.892 206.958 600.933 210.4 600.933 211.024C600.933 211.139 602.175 212.654 603.694 214.39C614.948 227.263 618.058 242.133 612.912 258.475L611.567 262.748L612.906 263.905C614.56 265.333 620.047 267.514 623.401 268.077C633.753 269.815 647.432 264.087 654.337 255.123C661.84 245.382 663.909 229.699 659.237 217.98C657.004 212.379 653.057 207 649.272 204.399C647.441 203.14 646.802 203.092 646.118 204.16C645.568 205.019 641.548 218.585 639.968 224.914C638.351 231.393 634.999 237.319 632.105 238.814C629.238 240.295 625.453 238.965 624 235.965C623.003 233.908 623.04 232 624.12 229.682C625.328 227.091 626.62 226.355 629.962 226.353C633.932 226.351 634.082 226.149 635.987 218.266C638.12 209.438 639.457 203.18 639.689 200.933C639.901 198.885 639.559 198.157 638.244 197.861ZM297.11 222.158C293.458 210.956 284.987 201.958 275.016 198.686C268.499 196.548 267.461 196.926 267.461 201.439V204.06L270.715 207.569C275.165 212.368 275.861 213.587 275.668 216.246C275.49 218.709 274.946 219.512 271.713 222.084C267.989 225.047 264.943 228.111 264.943 228.896C264.943 229.295 265.631 230.596 266.472 231.786C267.92 233.838 268.001 234.085 268.001 236.48C268.001 238.927 267.96 239.042 266.742 240.073C264.237 242.192 263.8 242.299 257.569 242.338C252.052 242.371 251.671 242.422 248.395 243.546C246.516 244.192 243.143 245.681 240.901 246.856C238.659 248.031 236.672 248.992 236.486 248.992C236.3 248.992 235.438 248.338 234.57 247.538C232.809 245.917 231.125 245.276 229.509 245.614C227.151 246.108 227.039 246.877 228.665 251.368C230.649 256.843 235.366 262.899 240.841 266.998C243.782 269.2 248.807 271.589 252.691 272.63C255.725 273.444 256.849 273.555 262.245 273.571C267.547 273.587 268.767 273.479 271.418 272.76C282.166 269.844 291.109 261.857 295.543 251.217C297.641 246.182 298.425 242.259 298.65 235.668C298.873 229.142 298.597 226.719 297.11 222.158ZM85.3041 227.609C90.7026 214.176 95.8989 200.332 95.7979 199.65C95.6417 198.599 94.9777 198.519 94.35 199.476C94.0532 199.929 93.0402 202.24 92.0991 204.611C91.158 206.982 90.1713 209.407 89.9065 210C87.9554 214.367 81.1197 232.055 81.1197 232.737C81.1197 233.442 81.2791 233.567 82.0564 233.473C82.9061 233.37 83.208 232.824 85.3041 227.609ZM255.1 209.999C254.824 209.282 248.911 201.053 248.317 200.561C246.897 199.384 244.269 200.036 243.324 201.801C242.854 202.676 242.902 202.787 244.264 203.969C246.837 206.203 251.107 209.047 253.022 209.801C255.263 210.683 255.366 210.693 255.1 209.999ZM732.445 203.711C733.022 203.711 734.034 201.905 734.034 200.875C734.034 200.482 733.905 200.08 733.748 199.983C733.463 199.807 733.359 199.913 732.138 201.634C731.46 202.588 731.626 203.711 732.445 203.711ZM103.167 203.775C102.772 203.246 101.98 202.547 101.407 202.222C99.8039 201.312 98.8894 201.13 98.4675 201.638C97.5678 202.72 94.0021 212.836 93.3467 216.164C92.4409 220.763 92.8099 220.561 97.7178 213.773C100.219 210.315 102.63 206.866 103.075 206.111L103.885 204.737L103.167 203.775ZM532.404 202.633C532.274 202.222 531.639 201.786 530.855 201.568C530.124 201.366 529.356 201.199 529.149 201.198C527.303 201.188 527.488 206.771 529.426 209.551C530.317 210.828 530.785 210.805 530.785 209.483C530.785 208.901 531.199 207.279 531.706 205.878C532.211 204.476 532.526 203.016 532.404 202.633ZM750.222 209.537C750.222 208.31 747.774 205.952 745.126 204.629C743.702 203.917 742.03 203.352 741.349 203.352C740.195 203.352 740.066 203.483 739.039 205.698C737.887 208.186 736.675 212.998 736.993 213.825C737.1 214.103 739.163 214.853 741.72 215.543C747.45 217.089 747.581 217.046 749.108 213.09C749.721 211.502 750.222 209.903 750.222 209.537ZM190.982 208.886C192.415 208.337 192.664 206.356 191.445 205.211C190.38 204.212 190.177 204.229 189.75 205.352C188.951 207.451 189.632 209.404 190.982 208.886ZM221.279 207.486C221.552 207.113 221.775 206.435 221.775 205.978C221.775 205.281 221.589 205.149 220.606 205.154C218.294 205.165 217.922 206.291 219.821 207.533C220.744 208.137 220.803 208.136 221.279 207.486ZM242.557 219.523C240.755 218.041 237.904 215.655 236.221 214.223C234.537 212.79 232.965 211.617 232.726 211.617C231.789 211.617 228.25 218.023 228.25 219.72C228.25 220.337 229.742 220.787 234.719 221.672C239.495 222.521 245.888 223.02 245.855 222.542C245.843 222.364 244.359 221.006 242.557 219.523ZM216.34 219.02C216.721 218.676 217.38 217.587 217.804 216.601C218.281 215.495 218.535 214.259 218.467 213.379L218.358 211.951L215.693 213.595C212.498 215.566 209.544 217.977 209.544 218.615C209.544 219.973 214.931 220.293 216.34 219.02ZM778.641 225.31C778.641 225.132 775.613 222.423 771.913 219.29C764.535 213.043 763.718 212.35 763.497 212.505C763.468 212.526 763.449 212.56 763.427 212.599C763.342 212.751 763.175 213.284 763.056 213.783C762.937 214.283 762.266 215.334 761.566 216.119C760.116 217.745 759.299 219.75 759.858 220.309C760.258 220.709 777.017 225.619 778.012 225.627C778.358 225.63 778.641 225.487 778.641 225.31ZM548.053 215.589C548.053 215.166 547.655 214.422 547.169 213.937C546.684 213.452 546.052 213.055 545.765 213.055C544.39 213.055 536.524 229.265 537.131 230.846C537.383 231.501 539.301 232.576 539.737 232.307C539.9 232.206 540.402 231.108 540.853 229.866C541.935 226.88 543.729 223.342 546.109 219.499C547.178 217.772 548.053 216.013 548.053 215.589ZM450.205 216.509C450.205 215.777 448.754 215.05 445.49 214.146C440.181 212.677 434.391 213.362 428.981 216.1C418.618 221.345 412.433 231.667 412.433 243.72C412.433 255.419 419.001 265.923 429.649 271.255C443.305 278.093 460.815 270.428 466.769 255.005C468.366 250.866 468.898 247.978 468.903 243.421C468.912 233.391 464.751 225.059 457.111 219.808C456.253 219.218 455.466 218.82 455.363 218.923C455.259 219.027 453.476 224.824 451.4 231.806C449.324 238.787 447.249 245.146 446.789 245.937C444.446 249.964 440.891 250.957 437.484 248.538C434.577 246.474 434.858 239.927 437.932 238.113C438.675 237.675 439.77 237.492 441.648 237.492C443.219 237.492 444.559 237.307 444.914 237.043C445.321 236.739 446.047 234.256 447.149 229.406C448.046 225.453 449.101 221.06 449.493 219.644C449.885 218.228 450.205 216.817 450.205 216.509ZM572.245 233.126C572.393 233.155 572.514 228.813 572.514 223.476C572.514 215.94 572.414 213.779 572.065 213.799C571.134 213.852 567.235 215.12 565.62 215.894C564.697 216.337 562.997 217.564 561.843 218.621L559.744 220.543L565.859 226.807C569.223 230.253 572.096 233.097 572.245 233.126ZM584.837 215.076L584.032 214.425C582.938 213.54 580.925 213.565 580.441 214.468C580.237 214.851 580.071 216.266 580.073 217.613C580.076 218.96 579.884 222.376 579.646 225.204C579.302 229.294 579.307 230.793 579.667 232.538C580.209 235.16 581.121 237.551 581.491 237.323C581.637 237.232 581.859 235.484 581.984 233.438C582.281 228.596 583.154 222.316 584.09 218.288L584.837 215.076ZM576.979 221.141C577.236 217.583 577.379 214.55 577.297 214.402C577.049 213.952 576.227 214.1 575.744 214.682C575.19 215.349 575.458 228.499 576.055 229.945C576.392 230.761 576.43 230.695 576.469 229.226C576.493 228.337 576.723 224.698 576.979 221.141ZM533.008 225.476C533.121 226.853 533.192 226.756 535.762 221.74C537.212 218.906 538.331 216.52 538.247 216.436C537.938 216.127 535.179 218.416 534.461 219.579C533.492 221.146 532.863 223.7 533.008 225.476ZM745.577 223.153C746.152 221.237 745.888 220.193 744.646 219.474C743.115 218.587 740.059 218.228 739.524 218.872C738.914 219.606 738.42 222.14 738.725 222.966C739.122 224.037 739.794 224.438 741.641 224.705C744.188 225.073 745.111 224.709 745.577 223.153ZM604.23 234.797C603.137 230.974 601.368 227.903 598.517 224.885C596.199 222.43 595.754 222.117 595.398 222.692C595.012 223.317 594.458 229.199 594.458 232.681C594.458 238.777 595.91 244.606 598.625 249.403C600.138 252.077 602.317 255.101 602.731 255.101C602.895 255.101 603.477 253.282 604.025 251.058C605.379 245.563 605.46 239.106 604.23 234.797ZM562.342 227.91C561.034 226.692 559.238 225.196 558.35 224.585C557.463 223.976 556.567 223.476 556.359 223.476C555.902 223.476 552.956 227.877 552.196 229.695C551.196 232.087 551.35 232.335 554.438 233.304C559.894 235.015 569.996 237.031 569.996 236.407C569.996 235.958 564.859 230.255 562.342 227.91ZM776.955 228.357C775.607 228.022 771.414 226.868 767.638 225.792C763.861 224.716 760.332 223.836 759.795 223.836C759.01 223.836 758.711 224.096 758.264 225.163C757.767 226.352 757.766 226.533 758.257 226.892C759.615 227.884 778.227 229.953 779.114 229.211C779.274 229.076 778.303 228.692 776.955 228.357ZM214.964 236.414C214.793 232.955 214.539 229.842 214.398 229.496C214.191 228.984 213.731 228.876 211.934 228.916C209.059 228.979 208.256 229.151 207.701 229.819C207.427 230.149 207.133 232.122 206.969 234.739C206.688 239.195 206.235 241.218 204.898 243.983C204.432 244.947 204.273 245.666 204.481 245.874C204.895 246.288 211.553 245.621 213.861 244.936C215.26 244.52 215.466 244.336 215.377 243.579C215.321 243.097 215.135 239.873 214.964 236.414ZM239.762 231.859C239.762 231.214 238.408 230.706 235.085 230.101C232.284 229.592 225.672 229.406 225.253 229.825C224.892 230.186 224.981 239.618 225.361 241.256C225.816 243.216 226.576 243.704 228.834 243.483C231.122 243.26 233.07 242.279 234.786 240.487C236.116 239.099 239.762 232.777 239.762 231.859ZM201.922 238.655C202.46 236.86 202.44 233.743 201.88 232.101C201.556 231.154 201.229 230.825 200.551 230.77C198.181 230.576 197.1 232.363 197.197 236.317L197.26 238.916L195.938 239.26C193.248 239.96 192.054 240.043 190.304 239.65C187.807 239.09 187.241 238.478 187.241 236.34C187.241 233.578 186.225 232.101 184.325 232.101C182.774 232.101 182.337 236.612 183.623 239.344C184.959 242.184 187.076 243.949 190.239 244.861C192.581 245.537 193.982 245.402 196.694 244.24C198.784 243.345 201.332 240.623 201.922 238.655ZM745.036 233.511C746.153 232.462 746.138 231.812 744.983 231.374C743.561 230.834 742.519 230.953 741.657 231.756C741.224 232.159 740.869 232.624 740.869 232.79C740.869 233.292 741.702 233.801 742.967 234.071C743.937 234.279 744.332 234.172 745.036 233.511ZM567.838 240.612C567.838 239.984 563.442 238.168 559.836 237.306C557.304 236.701 550.93 236.168 550.93 236.562C550.93 237.018 555.357 238.814 557.945 239.407C559.33 239.725 561.758 240.164 563.341 240.383C564.924 240.601 566.584 240.867 567.029 240.972C567.6 241.107 567.838 241.001 567.838 240.612ZM252.982 240.299C254.215 240.197 254.331 240.095 254.331 239.114C254.331 238.445 254.128 238.002 253.791 237.938C252.977 237.783 251.633 238.874 251.633 239.69C251.633 240.302 251.835 240.393 252.982 240.299ZM532.888 242.523C533.69 242.523 534.742 241.437 534.742 240.608C534.742 239.704 533.811 239.886 532.97 240.954C532.05 242.123 532.029 242.523 532.888 242.523ZM566.939 245.113C566.308 244.51 559.164 242.888 554.717 242.337C549.725 241.718 549.492 241.708 549.492 242.096C549.492 242.499 551.276 244.126 552.369 244.722C553.449 245.31 567.541 245.688 566.939 245.113ZM592.866 263.291C590.831 260.766 586.231 252.024 584.714 247.799C584.24 246.479 583.761 245.398 583.65 245.398C583.539 245.398 582.89 245.978 582.208 246.686C580.09 248.887 579.37 249.103 574.878 248.878C572.688 248.769 569.358 248.421 567.478 248.105C563.377 247.415 552.092 247.293 550.909 247.925C550.212 248.297 550.169 248.522 550.402 250.549C550.963 255.436 553.167 259.9 557.236 264.393C563.368 271.161 573.867 274.462 583.127 272.532C587.245 271.674 594.828 267.516 594.813 266.125C594.811 265.893 593.934 264.617 592.866 263.291Z" fill="white"/>
</svg>
